<?xml version="1.0" encoding="UTF-8"?>
<svg xmlns="http://www.w3.org/2000/svg" xmlns:xlink="http://www.w3.org/1999/xlink" width="64px" height="64px" viewBox="0 0 64 64" version="1.1">
<g id="surface1">
<path style=" stroke:none;fill-rule:nonzero;fill:rgb(68.627451%,69.411765%,70.196078%);fill-opacity:1;" d="M 47.753906 36.382812 L 47.753906 47.351562 L 36.386719 47.351562 L 36.386719 52.84375 L 47.753906 52.84375 L 47.753906 63.8125 L 53.238281 63.8125 L 53.238281 52.84375 L 63.808594 52.84375 L 63.808594 47.351562 L 53.238281 47.351562 L 53.238281 36.382812 Z M 47.753906 36.382812 "/>
<path style=" stroke:none;fill-rule:nonzero;fill:rgb(68.627451%,69.411765%,70.196078%);fill-opacity:1;" d="M 5.171875 4.96875 C 3.6875 4.96875 2.449219 5.871094 2.164062 7.070312 C 2.121094 7.242188 2.09375 7.421875 2.09375 7.601562 L 2.09375 52.734375 C 2.09375 54.1875 3.480469 55.375 5.171875 55.375 L 19.34375 55.375 L 31.664062 55.296875 L 31.664062 51.335938 L 23.257812 51.414062 L 6.710938 51.414062 L 6.710938 17.476562 L 56.296875 17.476562 L 56.347656 31.117188 L 56.347656 31.875 L 60.957031 31.875 L 60.957031 31.265625 L 60.90625 7.601562 C 60.90625 7.421875 60.890625 7.242188 60.851562 7.070312 C 60.566406 5.871094 59.320312 4.96875 57.835938 4.96875 Z M 5.171875 4.96875 "/>
<path style=" stroke:none;fill-rule:nonzero;fill:rgb(68.627451%,69.411765%,70.196078%);fill-opacity:1;" d="M 31.386719 35.976562 L 31.386719 32.695312 L 17.269531 26.203125 L 17.269531 30.683594 L 25.773438 34.335938 L 17.269531 37.988281 L 17.269531 42.464844 Z M 31.386719 35.976562 "/>
</g>
</svg>
