<?xml version="1.0" encoding="UTF-8" standalone="no"?>
<svg
   width="16"
   height="16"
   role="img"
   version="1.1"
   id="svg93"
   sodipodi:docname="addHuggingface_dark.svg"
   inkscape:version="1.1.1 (3bf5ae0d25, 2021-09-20)"
   xmlns:inkscape="http://www.inkscape.org/namespaces/inkscape"
   xmlns:sodipodi="http://sodipodi.sourceforge.net/DTD/sodipodi-0.dtd"
   xmlns="http://www.w3.org/2000/svg"
   xmlns:svg="http://www.w3.org/2000/svg"
   xmlns:rdf="http://www.w3.org/1999/02/22-rdf-syntax-ns#"
   xmlns:cc="http://creativecommons.org/ns#"
   xmlns:dc="http://purl.org/dc/elements/1.1/">
  <defs
     id="defs97">
    <mask
       stroke="null"
       height="16"
       width="27"
       y="41"
       x="33"
       maskUnits="userSpaceOnUse"
       mask-type="alpha"
       id="svg_7">
      <path
         stroke="null"
         fill="#ffffff"
         d="m 46.9619,56.289 c 9.8284,0 13,-8.7629 13,-13.2628 0,-2.3387 -1.5721,-1.6026 -4.0901,-0.356 -2.3269,1.152 -5.4616,2.7399 -8.9099,2.7399 -7.1797,0 -13,-6.8838 -13,-2.3839 0,4.4999 3.1715,13.2628 13,13.2628 z"
         id="path70" />
    </mask>
  </defs>
  <sodipodi:namedview
     id="namedview95"
     pagecolor="#ffffff"
     bordercolor="#666666"
     borderopacity="1.0"
     inkscape:pageshadow="2"
     inkscape:pageopacity="0.0"
     inkscape:pagecheckerboard="0"
     showgrid="false"
     inkscape:zoom="22.627417"
     inkscape:cx="-0.28726213"
     inkscape:cy="11.733553"
     inkscape:window-width="1920"
     inkscape:window-height="1001"
     inkscape:window-x="-9"
     inkscape:window-y="-9"
     inkscape:window-maximized="1"
     inkscape:current-layer="g91"
     width="16px" />
  <title
     id="title54">OpenAI icon</title>
  <g
     id="g91">
    <title
       id="title56">Layer 1</title>
    <path
       id="svg_5"
       style="fill:#afb1b3;stroke-width:0.590087"
       d="m 12.535364,10.094785 v 2.359742 h -2.444485 v 1.179871 h 2.444485 v 2.359743 h 1.17987 v -2.359743 h 2.275 v -1.179871 h -2.275 v -2.359742 z" />
    <g
       stroke="null"
       mask="url(#svg_7)"
       id="g75">
      <path
         stroke="null"
         fill="#f94040"
         d="m 11.98309,17.06477 c 1.28911,0 2.33414,-1.04503 2.33414,-2.33414 0,-1.0041 -0.63399,-1.86009 -1.52349,-2.18953 -0.03275,-0.01214 -0.06583,-0.02355 -0.09923,-0.03423 -0.22429,-0.0717 -0.46333,0.6992 -0.71142,0.6992 -0.2318,0 -0.45572,-0.77579 -0.66709,-0.71287 -2.6302723,1.087544 -1.5024088,4.50564 0.66709,4.57158 z"
         id="path73"
         sodipodi:nodetypes="csccsccc" />
    </g>
    <g
       id="g3408">
      <path
         id="path62"
         style="fill:#afb1b3;fill-opacity:1;stroke-width:0.632329"
         d="m 7.6542969,-0.02539063 c -3.6420142,0 -6.59375,2.95370783 -6.59375,6.59570313 0,0.687499 0.1071836,1.34792 0.3027343,1.9707031 -0.00384,-4.76e-5 -0.00789,-0.00195 -0.011719,-0.00195 -0.2637762,0 -0.50144405,0.099581 -0.66992188,0.2832031 -0.21646525,0.2357008 -0.31334457,0.5265909 -0.27148437,0.8164063 0.019912,0.1380123 0.0658417,0.2604662 0.13476563,0.375 -0.14533457,0.117594 -0.25295035,0.281613 -0.3046875,0.478516 -0.0405007,0.154351 -0.0820411,0.475476 0.13476562,0.80664 -0.0137847,0.02161 -0.0250255,0.04538 -0.0371094,0.06836 -0.1303543,0.247437 -0.14043022,0.526742 -0.0253906,0.787109 0.17443435,0.394643 0.60946554,0.705337 1.4511719,1.039062 0.5236382,0.20762 1.001604,0.340609 1.0058593,0.341797 0.6922867,0.179537 1.3193082,0.271485 1.8613282,0.271485 0.8909492,0 1.5545259,-0.246286 1.9785156,-0.728516 0.340314,0.05467 0.6889117,0.08594 1.0449219,0.08594 0.3814107,0 0.7535248,-0.03727 1.1171875,-0.09961 0.2343029,0.271827 0.3659833,0.459931 0.6035156,0.576172 v -0.929687 c -0.0027,-0.0025 -0.00513,-0.0053 -0.00781,-0.0078 -0.025712,-0.02394 -0.05065,-0.04973 -0.074219,-0.07617 -0.00245,-0.0027 -0.00539,-0.005 -0.00781,-0.0078 -0.028795,-0.03296 -0.054869,-0.06655 -0.080078,-0.103516 C 9.1567842,12.444785 9.115633,12.376099 9.078125,12.308594 8.7516473,11.721129 8.8356932,11.246032 9.4121094,10.669922 10.054701,10.027836 10.429688,9.0898438 10.429688,9.0898438 c 0,-3e-7 0.126711,-0.5 0.416015,-0.5 0.01327,-3e-7 0.02707,0.00169 0.04102,0.00391 0.318239,0.050207 0.553306,0.8664405 -0.113281,1.3652344 -0.443313,0.3315048 -0.238982,0.5917968 0.02344,0.5917968 0.132227,0 0.279294,-0.06575 0.365234,-0.222656 0.25646,-0.4683286 0.957324,-1.6740471 1.320313,-1.9042971 0.116918,-0.074197 0.221804,-0.109375 0.308594,-0.109375 0.182605,0 0.280686,0.1627344 0.222656,0.484375 -0.03797,0.2105325 -0.284183,0.5109877 -0.615234,0.8496094 h 0.759765 c 0.0055,-0.0039 0.01015,-0.00783 0.01563,-0.011719 0.02693,-0.019092 0.05294,-0.038006 0.08008,-0.056641 0.06407,-0.043992 0.05531,-0.042242 0.11914,-0.082031 0.01368,-0.00853 0.02741,-0.01712 0.04101,-0.025391 0.07561,-0.045932 0.149181,-0.089326 0.220704,-0.125 v -0.00195 c 0.154478,-0.077071 0.296003,-0.1269182 0.40625,-0.1269531 0.07028,0 0.129079,0.019868 0.169922,0.064453 0.146924,0.1599644 0.244821,0.2412739 0.177734,0.3652344 h 0.658203 c 0.0034,-0.017385 0.0072,-0.034843 0.0098,-0.052734 0.04186,-0.2898154 -0.127289,-0.5377368 -0.34375,-0.7734376 -0.168478,-0.1836225 -0.408099,-0.2832031 -0.671875,-0.2832031 -0.03164,0 -0.0648,0.0046 -0.09766,0.00781 0.196643,-0.6242775 0.304688,-1.2873435 0.304688,-1.9765625 0,-3.6419953 -2.951755,-6.59570313 -6.5937501,-6.59570313 z m 0,0.67968751 c 3.2660371,5e-8 5.9140621,2.64995912 5.9140621,5.91601562 0,0.4515149 -0.05248,0.8901528 -0.148437,1.3125 -0.166381,-0.1615652 -0.385915,-0.25 -0.628906,-0.25 -0.220551,0 -0.44681,0.072828 -0.673828,0.2167969 -0.150613,0.095646 -0.316914,0.2654522 -0.488282,0.4785156 -0.158777,-0.2202087 -0.380518,-0.366259 -0.634765,-0.40625 -0.04868,-0.00766 -0.0996,-0.011719 -0.148438,-0.011719 -0.580478,0 -0.9284907,0.504018 -1.0605468,0.9570313 -0.065522,0.152992 -0.3804134,0.8495134 -0.8535156,1.3222657 -0.7173971,0.716968 -0.897362,1.456167 -0.546875,2.248047 -0.2394513,0.02991 -0.4829895,0.04492 -0.7304687,0.04492 -0.2195744,0 -0.4373106,-0.01135 -0.6503907,-0.03516 C 7.3601184,11.651771 7.1812273,10.909312 6.4609375,10.189453 5.9878414,9.7167011 5.6748969,9.0201795 5.609375,8.8671875 5.4773193,8.4141742 5.1273533,7.9101562 4.546875,7.9101562 c -0.048841,0 -0.097814,0.00406 -0.1464844,0.011719 C 4.1461437,7.9618653 3.9224498,8.1079163 3.7636719,8.328125 3.5923043,8.1150616 3.4259988,7.9452556 3.2753906,7.8496094 3.0483719,7.7056407 2.8221126,7.6328125 2.6015625,7.6328125 c -0.2755185,0 -0.5216503,0.1131238 -0.6933594,0.3183594 -0.00108,0.00129 -0.00283,0.0026 -0.00391,0.00391 C 1.7975342,7.510662 1.7402344,7.0475347 1.7402344,6.5703125 c 0,-3.2660565 2.6480059,-5.91601565 5.9140625,-5.91601562 z M 5.4375,3.7636719 C 5.1356566,3.7663692 4.8450354,3.9295892 4.6933594,4.2148438 4.4727398,4.6297719 4.6299937,5.1446148 5.0449219,5.3652344 5.2640113,5.4817411 5.34953,5.0355656 5.5664062,4.9589844 5.760272,4.890522 6.0911804,5.2095106 6.1953125,5.0136719 6.4159321,4.5987438 6.2586781,4.083901 5.84375,3.8632812 5.714085,3.7943377 5.5747015,3.7624458 5.4375,3.7636719 Z m 4.2265625,0 C 9.5402833,3.7685853 9.4155267,3.8012322 9.2988281,3.8632812 8.8839,4.083901 8.7266459,4.5987438 8.9472656,5.0136719 9.0513976,5.2095106 9.3823061,4.890522 9.5761719,4.9589844 9.7930481,5.0355656 9.8785739,5.4817411 10.097656,5.3652344 10.512584,5.1446148 10.669838,4.6297719 10.449219,4.2148438 10.290648,3.9166232 9.9803872,3.7511154 9.6640625,3.7636719 Z m -5.9238281,0.890625 c -0.305472,0 -0.5527344,0.2472815 -0.5527344,0.5527343 0,0.3054529 0.2472624,0.5546875 0.5527344,0.5546876 0.3054529,0 0.5527344,-0.2492346 0.5527344,-0.5546876 0,-0.3054528 -0.2472815,-0.5527343 -0.5527344,-0.5527343 z m 7.9121096,0 c -0.305472,0 -0.552735,0.2472815 -0.552735,0.5527343 0,0.3054529 0.247263,0.5546875 0.552735,0.5546876 0.305454,0 0.554687,-0.2492346 0.554687,-0.5546876 0,-0.3054528 -0.249233,-0.5527343 -0.554687,-0.5527343 z M 5.5722656,6.5273438 c -0.1119498,-0.00214 -0.1738281,0.068318 -0.1738281,0.2597656 0,0.7657887 0.5402912,2.2558588 2.2128906,2.2558594 1.6725867,0 2.2128905,-1.4900707 2.2128907,-2.2558594 0,-0.3979944 -0.2687551,-0.2726928 -0.6972657,-0.060547 -0.3959899,0.1960472 -0.9287982,0.4648439 -1.515625,0.4648437 -0.9163731,0 -1.703213,-0.6576513 -2.0390625,-0.6640623 z M 2.6015625,8.3144531 c 0.086793,0 0.1936293,0.035178 0.3105469,0.109375 0.3629887,0.23025 1.0618993,1.4359687 1.3183594,1.9042969 0.08594,0.156906 0.2330079,0.222656 0.3652343,0.222656 0.2624166,0 0.4687036,-0.260292 0.025391,-0.5917966 C 3.9545045,9.4601908 4.1876206,8.643957 4.5058594,8.59375 c 0.013955,-0.00222 0.027744,-0.00391 0.041016,-0.00391 0.2893033,0 0.4160156,0.5 0.4160156,0.5 0,0 0.374986,0.937992 1.0175782,1.580078 0.5821142,0.581805 0.6621466,1.060712 0.3242187,1.65625 -0.035134,0.06192 -0.073059,0.124735 -0.1171875,0.189453 -0.024673,0.03618 -0.052047,0.06925 -0.080078,0.101563 -0.00304,0.0035 -0.00473,0.0083 -0.00781,0.01172 -0.0055,0.0062 -0.011957,0.01152 -0.017578,0.01758 -0.024518,0.02634 -0.04948,0.05047 -0.076172,0.07422 -0.00208,0.0019 -0.00377,0.004 -0.00586,0.0059 l -0.00195,0.002 c -0.034611,0.03022 -0.071485,0.05975 -0.109375,0.08594 -0.3350475,0.2322 -0.7921783,0.310547 -1.2578125,0.310547 -0.6499143,0 -1.3160814,-0.151213 -1.6894532,-0.248047 -0.018382,-0.0048 -2.28955536,-0.647424 -2.00195308,-1.193359 0.048329,-0.09172 0.12828488,-0.128909 0.22851568,-0.128906 0.4050256,0 1.1422822,0.603515 1.4589843,0.603515 0.070796,0 0.1202008,-0.03002 0.140625,-0.103515 0.1349522,-0.484157 -2.0514925,-0.687362 -1.86718748,-1.388672 0.0325017,-0.124063 0.12024858,-0.173999 0.24414058,-0.173828 0.5352099,0 1.7346358,0.941406 1.9863282,0.941406 0.019229,0 0.033529,-0.0056 0.041016,-0.01758 0.00166,-0.0027 0.00232,-0.0052 0.00391,-0.0078 0.014293,-0.02389 0.025638,-0.04719 0.033203,-0.07031 0.023056,-0.07048 0.00989,-0.14076 -0.068359,-0.232422 -0.025455,-0.02982 -0.059334,-0.06261 -0.099609,-0.09766 -0.040634,-0.03536 -0.09066,-0.075 -0.1484375,-0.117187 -0.0538,-0.03928 -0.1171055,-0.0844 -0.1875,-0.130859 -0.00539,-0.0036 -0.010134,-0.0062 -0.015625,-0.0098 -0.00175,-0.0011 -0.0041,-0.0028 -0.00586,-0.0039 -0.07561,-0.04949 -0.1639178,-0.103261 -0.2597657,-0.16211 -0.029526,-0.01813 -0.05242,-0.03363 -0.083984,-0.05273 C 1.4509874,9.993067 0.8268155,9.6695121 1.1816406,9.2832031 1.2224826,9.2386181 1.2812795,9.21875 1.3515625,9.21875 c 0.090887,2.87e-5 0.2031797,0.035099 0.3261719,0.089844 0.036162,0.016056 0.07357,0.035203 0.1113281,0.054687 0.02235,0.011566 0.045553,0.020579 0.068359,0.033203 0.0021,0.00116 0.00376,0.00274 0.00586,0.00391 0.00525,0.00292 0.010358,0.0068 0.015625,0.00977 0.083408,0.047053 0.1679508,0.1011743 0.2539063,0.1582032 0.00982,0.00651 0.019483,0.010976 0.029297,0.017578 0.00979,0.00659 0.019521,0.012863 0.029297,0.019531 0.088147,0.060075 0.1752488,0.124197 0.2597657,0.1875 0.003,0.00224 0.00678,0.00362 0.00977,0.00586 0.1149069,0.086578 0.224512,0.1734223 0.3203125,0.2519528 0.1047765,0.08589 0.1944248,0.161946 0.2597656,0.21875 l 0.00195,0.002 c 0.049496,0.04344 0.1230468,0.107422 0.1230468,0.107422 0,0 0.3446032,0.359375 0.5527344,0.359375 0.047823,0 0.087665,-0.01978 0.1152344,-0.06641 C 3.9815301,10.42302 2.4645111,9.2734545 2.3789062,8.7988281 2.3208773,8.4771875 2.4189582,8.3144531 2.6015625,8.3144531 Z"
         sodipodi:nodetypes="sscscccccccccscsccccccccccsccsccscccscscccccccccscsssscscccscccscccscccsscsssccccssssccccssssssssssscssssscsccsccsccsscccccccscccscccscccscscccscccccccccccccscccsccs" />
    </g>
    <rect
       style="fill:#000000;fill-opacity:1"
       id="rect3397"
       width="0.10836886"
       height="0.027092215"
       x="14.873626"
       y="5.5539041" />
  </g>
  <metadata
     id="metadata1519">
    <rdf:RDF>
      <cc:Work
         rdf:about="">
        <dc:title>OpenAI icon</dc:title>
      </cc:Work>
    </rdf:RDF>
  </metadata>
</svg>
