<?xml version="1.0" encoding="UTF-8"?>
<svg xmlns="http://www.w3.org/2000/svg" xmlns:xlink="http://www.w3.org/1999/xlink" width="64px" height="64px" viewBox="0 0 64 64" version="1.1">
<g id="surface1">
<path style=" stroke:none;fill-rule:nonzero;fill:rgb(68.627451%,69.411765%,70.196078%);fill-opacity:1;" d="M 50.140625 40.378906 L 50.140625 49.816406 L 40.363281 49.816406 L 40.363281 54.539062 L 50.140625 54.539062 L 50.140625 63.976562 L 54.859375 63.976562 L 54.859375 54.539062 L 63.960938 54.539062 L 63.960938 49.816406 L 54.859375 49.816406 L 54.859375 40.378906 Z M 50.140625 40.378906 "/>
<path style=" stroke:none;fill-rule:nonzero;fill:rgb(68.627451%,69.411765%,70.196078%);fill-opacity:1;" d="M 30.617188 -0.101562 C 16.050781 -0.101562 4.242188 11.714844 4.242188 26.28125 C 4.242188 29.03125 4.671875 31.671875 5.453125 34.164062 C 5.4375 34.164062 5.421875 34.15625 5.40625 34.15625 C 4.351562 34.15625 3.402344 34.554688 2.726562 35.289062 C 1.859375 36.230469 1.472656 37.394531 1.640625 38.554688 C 1.71875 39.105469 1.902344 39.597656 2.179688 40.054688 C 1.597656 40.523438 1.167969 41.179688 0.960938 41.96875 C 0.800781 42.585938 0.632812 43.871094 1.5 45.195312 C 1.445312 45.28125 1.398438 45.375 1.351562 45.46875 C 0.832031 46.457031 0.789062 47.574219 1.25 48.617188 C 1.949219 50.195312 3.6875 51.4375 7.054688 52.773438 C 9.148438 53.605469 11.0625 54.136719 11.078125 54.140625 C 13.847656 54.859375 16.355469 55.226562 18.523438 55.226562 C 22.085938 55.226562 24.742188 54.242188 26.4375 52.3125 C 27.796875 52.53125 29.191406 52.65625 30.617188 52.65625 C 32.144531 52.65625 33.632812 52.507812 35.085938 52.257812 C 36.023438 53.34375 36.550781 54.097656 37.5 54.5625 L 37.5 50.84375 C 37.488281 50.832031 37.480469 50.824219 37.46875 50.8125 C 37.367188 50.71875 37.265625 50.613281 37.171875 50.507812 C 37.160156 50.496094 37.148438 50.488281 37.140625 50.476562 C 37.027344 50.34375 36.921875 50.210938 36.820312 50.0625 C 36.628906 49.777344 36.460938 49.503906 36.3125 49.234375 C 35.007812 46.882812 35.34375 44.984375 37.648438 42.679688 C 40.21875 40.113281 41.71875 36.359375 41.71875 36.359375 C 41.71875 36.359375 42.226562 34.359375 43.382812 34.359375 C 43.4375 34.359375 43.492188 34.367188 43.546875 34.375 C 44.820312 34.574219 45.761719 37.839844 43.09375 39.835938 C 41.320312 41.160156 42.136719 42.203125 43.1875 42.203125 C 43.714844 42.203125 44.304688 41.941406 44.648438 41.3125 C 45.675781 39.4375 48.476562 34.617188 49.929688 33.695312 C 50.398438 33.398438 50.816406 33.257812 51.164062 33.257812 C 51.894531 33.257812 52.285156 33.910156 52.054688 35.195312 C 51.902344 36.039062 50.917969 37.238281 49.59375 38.59375 L 52.632812 38.59375 C 52.65625 38.578125 52.671875 38.5625 52.695312 38.546875 C 52.804688 38.46875 52.90625 38.394531 53.015625 38.320312 C 53.273438 38.144531 53.238281 38.152344 53.492188 37.992188 C 53.546875 37.957031 53.601562 37.921875 53.65625 37.890625 C 53.957031 37.707031 54.253906 37.535156 54.539062 37.390625 L 54.539062 37.382812 C 55.15625 37.074219 55.722656 36.875 56.164062 36.875 C 56.445312 36.875 56.679688 36.953125 56.84375 37.132812 C 57.429688 37.773438 57.824219 38.097656 57.554688 38.59375 L 60.1875 38.59375 C 60.199219 38.523438 60.214844 38.453125 60.226562 38.382812 C 60.394531 37.222656 59.71875 36.230469 58.851562 35.289062 C 58.179688 34.554688 57.21875 34.15625 56.164062 34.15625 C 56.039062 34.15625 55.90625 34.175781 55.773438 34.1875 C 56.558594 31.691406 56.992188 29.039062 56.992188 26.28125 C 56.992188 11.714844 45.183594 -0.101562 30.617188 -0.101562 Z M 30.617188 2.617188 C 43.679688 2.617188 54.273438 13.21875 54.273438 26.28125 C 54.273438 28.085938 54.0625 29.84375 53.679688 31.53125 C 53.015625 30.886719 52.136719 30.53125 51.164062 30.53125 C 50.28125 30.53125 49.375 30.824219 48.46875 31.398438 C 47.867188 31.78125 47.199219 32.460938 46.515625 33.3125 C 45.878906 32.433594 44.992188 31.847656 43.976562 31.6875 C 43.78125 31.65625 43.578125 31.640625 43.382812 31.640625 C 41.0625 31.640625 39.667969 33.65625 39.140625 35.46875 C 38.878906 36.082031 37.617188 38.867188 35.726562 40.757812 C 32.855469 43.625 32.136719 46.582031 33.539062 49.75 C 32.582031 49.871094 31.605469 49.929688 30.617188 49.929688 C 29.738281 49.929688 28.867188 49.882812 28.015625 49.789062 C 29.441406 46.605469 28.726562 43.636719 25.84375 40.757812 C 23.953125 38.867188 22.699219 36.082031 22.4375 35.46875 C 21.910156 33.65625 20.507812 31.640625 18.1875 31.640625 C 17.992188 31.640625 17.796875 31.65625 17.601562 31.6875 C 16.585938 31.847656 15.691406 32.433594 15.054688 33.3125 C 14.371094 32.460938 13.703125 31.78125 13.101562 31.398438 C 12.195312 30.824219 11.289062 30.53125 10.40625 30.53125 C 9.304688 30.53125 8.320312 30.984375 7.632812 31.804688 C 7.628906 31.808594 7.621094 31.816406 7.617188 31.820312 C 7.191406 30.042969 6.960938 28.191406 6.960938 26.28125 C 6.960938 13.21875 17.554688 2.617188 30.617188 2.617188 Z M 21.75 15.054688 C 20.542969 15.066406 19.378906 15.71875 18.773438 16.859375 C 17.890625 18.519531 18.519531 20.578125 20.179688 21.460938 C 21.054688 21.925781 21.398438 20.140625 22.265625 19.835938 C 23.042969 19.5625 24.363281 20.839844 24.78125 20.054688 C 25.664062 18.394531 25.035156 16.335938 23.375 15.453125 C 22.855469 15.175781 22.296875 15.050781 21.75 15.054688 Z M 38.65625 15.054688 C 38.160156 15.074219 37.660156 15.203125 37.195312 15.453125 C 35.535156 16.335938 34.90625 18.394531 35.789062 20.054688 C 36.207031 20.839844 37.527344 19.5625 38.304688 19.835938 C 39.171875 20.140625 39.515625 21.925781 40.390625 21.460938 C 42.050781 20.578125 42.679688 18.519531 41.796875 16.859375 C 41.164062 15.667969 39.921875 15.003906 38.65625 15.054688 Z M 14.960938 18.617188 C 13.738281 18.617188 12.75 19.605469 12.75 20.828125 C 12.75 22.050781 13.738281 23.046875 14.960938 23.046875 C 16.183594 23.046875 17.171875 22.050781 17.171875 20.828125 C 17.171875 19.605469 16.183594 18.617188 14.960938 18.617188 Z M 46.609375 18.617188 C 45.386719 18.617188 44.398438 19.605469 44.398438 20.828125 C 44.398438 22.050781 45.386719 23.046875 46.609375 23.046875 C 47.832031 23.046875 48.828125 22.050781 48.828125 20.828125 C 48.828125 19.605469 47.832031 18.617188 46.609375 18.617188 Z M 22.289062 26.109375 C 21.839844 26.101562 21.59375 26.382812 21.59375 27.148438 C 21.59375 30.210938 23.753906 36.171875 30.445312 36.171875 C 37.136719 36.171875 39.296875 30.210938 39.296875 27.148438 C 39.296875 25.554688 38.222656 26.058594 36.507812 26.90625 C 34.925781 27.691406 32.792969 28.765625 30.445312 28.765625 C 26.78125 28.765625 23.632812 26.136719 22.289062 26.109375 Z M 10.40625 33.257812 C 10.753906 33.257812 11.179688 33.398438 11.648438 33.695312 C 13.101562 34.617188 15.894531 39.4375 16.921875 41.3125 C 17.265625 41.941406 17.855469 42.203125 18.382812 42.203125 C 19.433594 42.203125 20.257812 41.160156 18.484375 39.835938 C 15.816406 37.839844 16.75 34.574219 18.023438 34.375 C 18.078125 34.367188 18.132812 34.359375 18.1875 34.359375 C 19.34375 34.359375 19.851562 36.359375 19.851562 36.359375 C 19.851562 36.359375 21.351562 40.109375 23.921875 42.679688 C 26.25 45.007812 26.570312 46.921875 25.21875 49.304688 C 25.078125 49.550781 24.925781 49.804688 24.75 50.0625 C 24.652344 50.207031 24.542969 50.339844 24.429688 50.46875 C 24.417969 50.484375 24.410156 50.5 24.398438 50.515625 C 24.375 50.539062 24.351562 50.5625 24.328125 50.585938 C 24.230469 50.691406 24.128906 50.789062 24.023438 50.882812 C 24.015625 50.890625 24.007812 50.898438 24 50.90625 L 23.992188 50.914062 C 23.855469 51.035156 23.707031 51.152344 23.554688 51.257812 C 22.214844 52.1875 20.386719 52.5 18.523438 52.5 C 15.921875 52.5 13.257812 51.894531 11.765625 51.507812 C 11.691406 51.488281 2.609375 48.917969 3.757812 46.734375 C 3.949219 46.367188 4.269531 46.21875 4.671875 46.21875 C 6.292969 46.21875 9.242188 48.632812 10.507812 48.632812 C 10.792969 48.632812 10.988281 48.511719 11.070312 48.21875 C 11.609375 46.28125 2.863281 45.46875 3.601562 42.664062 C 3.730469 42.167969 4.082031 41.96875 4.578125 41.96875 C 6.71875 41.96875 11.515625 45.734375 12.523438 45.734375 C 12.601562 45.734375 12.65625 45.710938 12.6875 45.664062 C 12.695312 45.652344 12.695312 45.644531 12.703125 45.632812 C 12.761719 45.539062 12.804688 45.445312 12.835938 45.351562 C 12.929688 45.070312 12.875 44.789062 12.5625 44.421875 C 12.460938 44.304688 12.324219 44.171875 12.164062 44.03125 C 12 43.890625 11.800781 43.730469 11.570312 43.5625 C 11.355469 43.40625 11.101562 43.226562 10.820312 43.039062 C 10.796875 43.023438 10.78125 43.015625 10.757812 43 C 10.75 42.996094 10.742188 42.988281 10.734375 42.984375 C 10.433594 42.785156 10.078125 42.570312 9.695312 42.335938 C 9.578125 42.265625 9.484375 42.203125 9.359375 42.125 C 5.804688 39.972656 3.308594 38.679688 4.726562 37.132812 C 4.890625 36.953125 5.125 36.875 5.40625 36.875 C 5.769531 36.875 6.21875 37.015625 6.710938 37.234375 C 6.855469 37.296875 7.003906 37.375 7.15625 37.453125 C 7.246094 37.5 7.339844 37.535156 7.429688 37.585938 C 7.4375 37.589844 7.445312 37.597656 7.453125 37.601562 C 7.472656 37.613281 7.496094 37.628906 7.515625 37.640625 C 7.847656 37.828125 8.1875 38.046875 8.53125 38.273438 C 8.570312 38.300781 8.609375 38.316406 8.648438 38.34375 C 8.6875 38.371094 8.726562 38.394531 8.765625 38.421875 C 9.117188 38.664062 9.464844 38.917969 9.804688 39.171875 C 9.816406 39.179688 9.832031 39.1875 9.84375 39.195312 C 10.304688 39.542969 10.742188 39.890625 11.125 40.203125 C 11.542969 40.546875 11.902344 40.851562 12.164062 41.078125 L 12.171875 41.085938 C 12.371094 41.261719 12.664062 41.515625 12.664062 41.515625 C 12.664062 41.515625 14.042969 42.953125 14.875 42.953125 C 15.066406 42.953125 15.226562 42.875 15.335938 42.6875 C 15.925781 41.691406 9.859375 37.09375 9.515625 35.195312 C 9.285156 33.910156 9.675781 33.257812 10.40625 33.257812 Z M 10.40625 33.257812 "/>
<path style=" stroke:none;fill-rule:nonzero;fill:rgb(0%,0%,0%);fill-opacity:1;" d="M 59.496094 22.214844 L 59.929688 22.214844 L 59.929688 22.324219 L 59.496094 22.324219 Z M 59.496094 22.214844 "/>
</g>
</svg>
