<?xml version="1.0" encoding="UTF-8"?>
<svg xmlns="http://www.w3.org/2000/svg" xmlns:xlink="http://www.w3.org/1999/xlink" width="64px" height="64px" viewBox="0 0 64 64" version="1.1">
<g id="surface1">
<path style=" stroke:none;fill-rule:nonzero;fill:rgb(43.137255%,43.137255%,43.137255%);fill-opacity:1;" d="M 27.921875 0.5 C 21.3125 0.492188 15.445312 4.738281 13.390625 11.023438 C 9.140625 11.894531 5.472656 14.558594 3.328125 18.328125 C -0.00390625 24.054688 0.75 31.28125 5.195312 36.195312 C 3.824219 40.3125 4.292969 44.816406 6.484375 48.5625 C 9.785156 54.296875 16.410156 57.246094 22.882812 55.859375 C 25.761719 59.101562 29.898438 60.945312 34.234375 60.921875 C 35.382812 60.917969 34.644531 61.207031 35.761719 60.945312 L 35.761719 56.789062 C 34.664062 57.164062 35.394531 56.945312 34.234375 56.96875 C 31.585938 56.972656 29.023438 56.042969 26.992188 54.34375 L 27.351562 54.148438 L 35.761719 48.632812 L 35.761719 43.96875 C 35.757812 44.027344 35.726562 44.082031 35.675781 44.117188 L 25.375 50.726562 C 19.960938 53.84375 13.039062 51.988281 9.914062 46.578125 C 8.585938 44.289062 8.105469 41.601562 8.5625 38.992188 L 8.921875 39.210938 L 20.96875 46.15625 C 21.574219 46.511719 22.324219 46.511719 22.929688 46.15625 L 37.640625 37.671875 L 40.367188 37.671875 L 40.367188 28.523438 L 45.453125 31.46875 C 45.5 31.492188 45.535156 31.539062 45.546875 31.59375 L 45.546875 35.984375 L 49.554688 35.984375 L 49.554688 31.765625 C 49.535156 31.0625 49.144531 30.425781 48.53125 30.085938 L 33.84375 21.554688 L 38.914062 18.625 C 38.96875 18.59375 39.039062 18.59375 39.09375 18.625 L 51.257812 25.65625 C 55.449219 28.089844 57.625 31.234375 56.671875 35.984375 L 60.695312 35.984375 C 61.367188 31.488281 59.996094 28.609375 56.953125 25.226562 C 58.320312 21.109375 57.84375 16.601562 55.648438 12.859375 C 52.351562 7.125 45.726562 4.175781 39.257812 5.5625 C 36.367188 2.347656 32.246094 0.507812 27.921875 0.5 Z M 28.078125 4.476562 C 30.664062 4.515625 33.160156 5.441406 35.148438 7.09375 L 34.796875 7.296875 L 22.765625 14.242188 C 22.152344 14.597656 21.777344 15.253906 21.773438 15.960938 L 21.765625 32.882812 L 16.679688 29.953125 C 16.625 29.925781 16.589844 29.871094 16.578125 29.8125 L 16.578125 15.789062 C 16.585938 9.472656 21.761719 4.378906 28.078125 4.476562 Z M 42.539062 9.179688 C 49.515625 9.246094 54.773438 15.546875 53.59375 22.421875 L 53.59375 22.476562 L 53.234375 22.257812 L 41.210938 15.257812 C 40.601562 14.898438 39.84375 14.898438 39.234375 15.257812 L 24.539062 23.734375 L 24.539062 17.867188 C 24.53125 17.804688 24.558594 17.746094 24.609375 17.710938 L 36.773438 10.695312 C 38.527344 9.683594 40.515625 9.160156 42.539062 9.179688 Z M 12.695312 15.40625 L 12.695312 29.703125 C 12.6875 30.40625 13.058594 31.058594 13.671875 31.40625 L 28.3125 39.851562 L 23.226562 42.796875 C 23.171875 42.828125 23.101562 42.828125 23.046875 42.796875 L 10.890625 35.78125 C 5.484375 32.648438 3.628906 25.738281 6.742188 20.320312 L 6.742188 20.375 C 8.078125 18.066406 10.1875 16.308594 12.695312 15.40625 Z M 31.078125 23.148438 L 37.640625 26.929688 L 37.640625 34.476562 L 31.101562 38.257812 L 24.539062 34.476562 L 24.523438 26.929688 Z M 31.078125 23.148438 "/>
<path style=" stroke:none;fill-rule:nonzero;fill:rgb(43.137255%,43.137255%,43.137255%);fill-opacity:1;" d="M 48.332031 38.800781 L 48.332031 48.871094 L 38.261719 48.871094 L 38.261719 53.910156 L 48.332031 53.910156 L 48.332031 63.980469 L 53.371094 63.980469 L 53.371094 53.910156 L 63.441406 53.910156 L 63.441406 48.871094 L 53.371094 48.871094 L 53.371094 38.800781 Z M 48.332031 38.800781 "/>
</g>
</svg>
