<?xml version="1.0" encoding="UTF-8"?>
<svg xmlns="http://www.w3.org/2000/svg" xmlns:xlink="http://www.w3.org/1999/xlink" width="64px" height="64px" viewBox="0 0 64 64" version="1.1">
<g id="surface1">
<path style=" stroke:none;fill-rule:nonzero;fill:rgb(43.137255%,43.137255%,43.137255%);fill-opacity:1;" d="M 49.074219 38.390625 L 49.074219 48.625 L 38.480469 48.625 L 38.480469 53.734375 L 49.074219 53.734375 L 49.074219 63.96875 L 54.191406 63.96875 L 54.191406 53.734375 L 64.050781 53.734375 L 64.050781 48.625 L 54.191406 48.625 L 54.191406 38.390625 Z M 49.074219 38.390625 "/>
<path style=" stroke:none;fill-rule:nonzero;fill:rgb(43.137255%,43.137255%,43.137255%);fill-opacity:1;" d="M 31.046875 1.046875 C 22.917969 1.046875 15.277344 4.214844 9.53125 9.960938 C 3.785156 15.707031 0.617188 23.347656 0.617188 31.476562 C 0.617188 39.605469 3.785156 47.238281 9.53125 52.984375 C 15.277344 58.730469 22.917969 61.898438 31.046875 61.898438 C 32.574219 61.898438 34.078125 61.789062 35.5625 61.570312 L 35.5625 57.734375 C 34.542969 58.386719 33.492188 58.839844 32.414062 59.039062 L 32.414062 47.726562 C 33.472656 47.820312 34.523438 48.027344 35.5625 48.335938 L 35.5625 45.507812 C 34.523438 45.246094 33.476562 45.0625 32.414062 44.984375 L 32.414062 37.367188 C 33.492188 37.386719 34.539062 37.433594 35.5625 37.5 L 35.5625 34.75 C 34.488281 34.683594 33.4375 34.652344 32.414062 34.632812 L 32.414062 28.3125 C 36.460938 28.242188 41.027344 27.847656 45.328125 26.765625 C 45.46875 28.304688 45.539062 29.882812 45.539062 31.476562 C 45.539062 32.539062 45.492188 33.585938 45.429688 34.625 L 48.171875 34.625 C 48.230469 33.582031 48.273438 32.539062 48.273438 31.476562 C 48.273438 29.621094 48.179688 27.78125 48 25.992188 C 51.304688 24.890625 54.335938 23.3125 56.703125 21.070312 C 58.011719 24.285156 58.734375 27.796875 58.734375 31.476562 C 58.734375 32.542969 58.65625 33.589844 58.539062 34.625 L 61.304688 34.625 C 61.410156 33.582031 61.46875 32.539062 61.46875 31.476562 C 61.46875 23.347656 58.308594 15.707031 52.5625 9.960938 C 46.816406 4.214844 39.175781 1.046875 31.046875 1.046875 Z M 29.679688 3.90625 L 29.679688 15.21875 C 26.65625 14.953125 23.691406 13.800781 20.898438 11.820312 C 20.941406 11.738281 20.988281 11.65625 21.03125 11.578125 C 23.4375 7.171875 26.46875 4.5 29.679688 3.90625 Z M 32.414062 3.90625 C 35.625 4.5 38.65625 7.171875 41.0625 11.578125 C 41.105469 11.65625 41.144531 11.738281 41.1875 11.820312 C 38.394531 13.800781 35.4375 14.953125 32.414062 15.21875 Z M 22.257812 5.210938 C 20.980469 6.539062 19.796875 8.171875 18.734375 10.085938 C 17.988281 9.417969 17.253906 8.691406 16.539062 7.898438 C 18.324219 6.796875 20.238281 5.890625 22.257812 5.210938 Z M 39.835938 5.210938 C 41.855469 5.890625 43.769531 6.796875 45.554688 7.898438 C 44.839844 8.691406 44.105469 9.417969 43.359375 10.085938 C 42.296875 8.171875 41.113281 6.539062 39.835938 5.210938 Z M 14.265625 9.460938 C 15.300781 10.628906 16.375 11.683594 17.476562 12.617188 C 16.078125 15.769531 15.054688 19.363281 14.453125 23.203125 C 11.132812 22.027344 8.484375 20.433594 6.648438 18.460938 C 6.640625 18.453125 6.632812 18.445312 6.625 18.4375 C 8.507812 14.925781 11.121094 11.863281 14.265625 9.460938 Z M 47.828125 9.460938 C 50.972656 11.863281 53.585938 14.925781 55.46875 18.4375 C 55.460938 18.445312 55.453125 18.453125 55.445312 18.460938 C 53.609375 20.433594 50.960938 22.027344 47.640625 23.203125 C 47.039062 19.363281 46.015625 15.769531 44.617188 12.617188 C 45.71875 11.683594 46.792969 10.628906 47.828125 9.460938 Z M 19.710938 14.328125 C 22.859375 16.476562 26.222656 17.703125 29.679688 17.960938 L 29.679688 25.578125 C 24.933594 25.492188 20.699219 24.957031 17.09375 24.007812 C 17.613281 20.503906 18.492188 17.222656 19.710938 14.328125 Z M 42.375 14.328125 C 43.59375 17.222656 44.480469 20.503906 45 24.007812 C 41.394531 24.957031 37.160156 25.492188 32.414062 25.578125 L 32.414062 17.960938 C 35.871094 17.703125 39.226562 16.476562 42.375 14.328125 Z M 5.382812 21.070312 C 7.75 23.3125 10.789062 24.890625 14.09375 25.992188 C 13.914062 27.78125 13.8125 29.621094 13.8125 31.476562 C 13.8125 33.335938 13.914062 35.164062 14.09375 36.953125 C 10.789062 38.054688 7.75 39.632812 5.382812 41.875 C 4.074219 38.660156 3.351562 35.152344 3.351562 31.476562 C 3.351562 27.796875 4.074219 24.285156 5.382812 21.070312 Z M 16.765625 26.765625 C 21.066406 27.847656 25.632812 28.242188 29.679688 28.3125 L 29.679688 34.632812 C 25.632812 34.703125 21.066406 35.097656 16.765625 36.179688 C 16.625 34.640625 16.554688 33.070312 16.554688 31.476562 C 16.554688 29.882812 16.625 28.304688 16.765625 26.765625 Z M 29.679688 37.367188 L 29.679688 44.984375 C 26.222656 45.242188 22.863281 46.46875 19.710938 48.617188 C 18.492188 45.722656 17.613281 42.441406 17.09375 38.9375 C 20.699219 37.988281 24.933594 37.453125 29.679688 37.367188 Z M 14.453125 39.742188 C 15.054688 43.582031 16.078125 47.175781 17.476562 50.328125 C 16.375 51.261719 15.300781 52.316406 14.265625 53.484375 C 11.121094 51.082031 8.5 48.019531 6.617188 44.507812 C 6.625 44.5 6.640625 44.496094 6.648438 44.484375 C 8.484375 42.511719 11.132812 40.917969 14.453125 39.742188 Z M 29.679688 47.726562 L 29.679688 59.039062 C 26.46875 58.445312 23.4375 55.773438 21.03125 51.367188 C 20.988281 51.289062 20.941406 51.207031 20.898438 51.125 C 23.691406 49.144531 26.65625 47.992188 29.679688 47.726562 Z M 18.734375 52.859375 C 19.796875 54.773438 20.980469 56.40625 22.257812 57.734375 C 20.238281 57.054688 18.316406 56.148438 16.53125 55.046875 C 17.25 54.253906 17.988281 53.527344 18.734375 52.859375 Z M 18.734375 52.859375 "/>
</g>
</svg>
