<?xml version="1.0" encoding="UTF-8" standalone="no"?>
<svg
   width="16"
   height="16"
   role="img"
   version="1.1"
   id="svg2175"
   sodipodi:docname="addWebhook.svg"
   inkscape:version="1.1.1 (3bf5ae0d25, 2021-09-20)"
   xmlns:inkscape="http://www.inkscape.org/namespaces/inkscape"
   xmlns:sodipodi="http://sodipodi.sourceforge.net/DTD/sodipodi-0.dtd"
   xmlns="http://www.w3.org/2000/svg"
   xmlns:svg="http://www.w3.org/2000/svg"
   xmlns:rdf="http://www.w3.org/1999/02/22-rdf-syntax-ns#"
   xmlns:cc="http://creativecommons.org/ns#"
   xmlns:dc="http://purl.org/dc/elements/1.1/">
  <defs
     id="defs2179" />
  <sodipodi:namedview
     id="namedview2177"
     pagecolor="#505050"
     bordercolor="#eeeeee"
     borderopacity="1"
     inkscape:pageshadow="0"
     inkscape:pageopacity="0"
     inkscape:pagecheckerboard="0"
     showgrid="false"
     width="16px"
     inkscape:zoom="16"
     inkscape:cx="15.53125"
     inkscape:cy="15.34375"
     inkscape:window-width="1920"
     inkscape:window-height="1001"
     inkscape:window-x="-9"
     inkscape:window-y="-9"
     inkscape:window-maximized="1"
     inkscape:current-layer="svg2175" />
  <title
     id="title2129">OpenAI icon</title>
  <path
     id="svg_5"
     style="fill:#6e6e6e;fill-opacity:1;stroke-width:0.639358"
     d="M 12.269013,9.5977509 V 12.156345 H 9.6205754 v 1.277344 h 2.6484376 v 2.558594 h 1.279296 v -2.558594 h 2.464844 V 12.156345 H 13.548309 V 9.5977509 Z" />
  <g
     stroke="null"
     id="g2171"
     style="fill:#6e6e6e;fill-opacity:1"
     transform="matrix(0.63935837,0,0,0.63935837,0.05589945,0.09445204)">
    <g
       stroke="null"
       id="g2139"
       style="fill:#6e6e6e;fill-opacity:1">
      <g
         stroke="null"
         id="g2137"
         style="fill:#6e6e6e;fill-opacity:1">
        <path
           id="path2135"
           style="fill:#6e6e6e;fill-opacity:1;stroke-width:0.639358"
           d="m 7.7617188,0.26171875 c -2.0317787,0 -3.9422425,0.79185175 -5.3789063,2.22851565 -1.43663186,1.4366318 -2.22851562,3.3471596 -2.22851562,5.3789062 0,2.0317467 0.79185179,3.9402894 2.22851562,5.3769534 1.4366319,1.436632 3.3471276,2.228515 5.3789063,2.228515 0.3816044,0 0.7582116,-0.02717 1.1289062,-0.08203 v -0.958984 c -0.2547844,0.163251 -0.5179235,0.276502 -0.7871094,0.326172 v -2.828125 c 0.2650217,0.02336 0.5272627,0.07528 0.7871094,0.152343 V 11.376953 C 8.6309093,11.311826 8.3687197,11.265805 8.1035156,11.246094 V 9.3417969 C 8.3733191,9.3466824 8.6343503,9.3586151 8.890625,9.375 V 8.6875 C 8.6218518,8.6712499 8.3589536,8.6626117 8.1035156,8.6582031 V 7.078125 C 9.115588,7.0606513 10.256675,6.9614968 11.332031,6.6914062 c 0.03483,0.3846572 0.05274,0.7794333 0.05274,1.1777344 0,0.2658254 -0.01166,0.5269439 -0.02734,0.7871094 h 0.685547 c 0.01501,-0.2606622 0.02539,-0.5215646 0.02539,-0.7871094 0,-0.4643212 -0.02314,-0.9234981 -0.06836,-1.3710937 0.826249,-0.275199 1.583697,-0.6700903 2.175781,-1.2304688 0.326955,0.8034561 0.507813,1.6820437 0.507813,2.6015625 0,0.2670316 -0.0192,0.5278898 -0.04883,0.7871094 h 0.691406 c 0.02665,-0.2603387 0.04102,-0.5218425 0.04102,-0.7871094 0,-2.0317466 -0.789925,-3.9422744 -2.226563,-5.3789062 C 11.703993,1.0535705 9.7934654,0.26171875 7.7617188,0.26171875 Z M 7.4199219,0.9765625 v 2.828125 C 6.663676,3.7379832 5.9230956,3.4503571 5.2246094,2.9550781 5.2353058,2.9350215 5.246969,2.9143769 5.2578125,2.8945312 5.8593464,1.7925523 6.6168494,1.1247722 7.4199219,0.9765625 Z m 0.6835937,0 c 0.8030405,0.1482033 1.5606074,0.8159835 2.1621094,1.9179687 0.01088,0.01991 0.0205,0.040433 0.03125,0.060547 C 9.5983888,3.4503571 8.859819,3.7380408 8.1035156,3.8046875 Z M 5.5644531,1.3027344 C 5.2447484,1.6346253 4.9493111,2.0428735 4.6835938,2.5214844 4.4969075,2.3545863 4.313754,2.1724396 4.1347656,1.9746094 4.5807501,1.6991162 5.0592513,1.4722155 5.5644531,1.3027344 Z m 4.3945313,0 C 10.464276,1.4722475 10.94263,1.6990843 11.388672,1.9746094 11.209626,2.1725228 11.026588,2.3545607 10.839844,2.5214844 10.574126,2.042784 10.278727,1.6346828 9.9589844,1.3027344 Z m -6.3925782,1.0625 C 3.8252057,2.6573956 4.0938841,2.9205219 4.3691406,3.1542969 4.0192454,3.9424851 3.7638054,4.841002 3.6132812,5.8007812 2.7829337,5.5070153 2.1211047,5.1080198 1.6621094,4.6152344 1.65991,4.6128879 1.658475,4.6116383 1.65625,4.609375 2.1267794,3.7313697 2.7800018,2.9661737 3.5664062,2.3652344 Z m 8.3906248,0 c 0.786462,0.6009393 1.439659,1.3661353 1.910157,2.2441406 -0.0022,0.00229 -0.0037,0.00351 -0.0059,0.00586 C 13.402269,5.1080198 12.740536,5.5070153 11.910156,5.8007812 11.759632,4.841034 11.50416,3.9424851 11.154297,3.1542969 11.429643,2.9204579 11.698206,2.6574275 11.957031,2.3652344 Z M 4.9277344,3.5820312 C 5.715328,4.1188174 6.5554966,4.425998 7.4199219,4.4902344 V 6.3945312 C 6.2335285,6.3730488 5.174888,6.2392702 4.2734375,6.0019531 4.4032209,5.1256997 4.6234765,4.3060982 4.9277344,3.5820312 Z m 5.6660156,0 C 10.898008,4.3060982 11.120242,5.1257253 11.25,6.0019531 10.348549,6.2392382 9.2899154,6.3730808 8.1035156,6.3945312 V 4.4902344 C 8.9679473,4.4260236 9.8062139,4.1187918 10.59375,3.5820312 Z M 1.3457031,5.2675781 C 1.9377298,5.827931 2.6972778,6.2228479 3.5234375,6.4980469 3.4782157,6.9456361 3.453125,7.4048194 3.453125,7.8691406 c 0,0.4643788 0.025091,0.9214939 0.070312,1.3691406 C 2.6972203,9.5134483 1.9377873,9.9084867 1.3457031,10.46875 1.0188376,9.6653834 0.83789062,8.7885635 0.83789062,7.8691406 c 0,-0.9195188 0.18085098,-1.7980744 0.50781248,-2.6015625 z M 4.1914062,6.6914062 C 5.2667623,6.9615543 6.407792,7.0606258 7.4199219,7.078125 V 8.6582031 C 6.4078495,8.6757024 5.2668262,8.7748633 4.1914062,9.0449219 4.1565804,8.6602008 4.1386719,8.2675248 4.1386719,7.8691406 c 0,-0.3982947 0.017883,-0.7930452 0.052734,-1.1777344 z M 7.4199219,9.3417969 V 11.246094 C 6.5555541,11.31033 5.7153536,11.617536 4.9277344,12.154297 4.6235085,11.430262 4.4031889,10.610539 4.2734375,9.734375 5.174888,9.4970899 6.2335541,9.3632537 7.4199219,9.3417969 Z m -3.8066407,0.59375 c 0.1505242,0.9596261 0.4060856,1.8583541 0.7558594,2.6464841 -0.2753461,0.233839 -0.5438773,0.49687 -0.8027344,0.789063 -0.7863468,-0.60094 -1.4416375,-1.366193 -1.9121093,-2.244141 0.00226,-0.0023 0.00561,-0.0034 0.00781,-0.0059 0.4590593,-0.492696 1.1208243,-0.891807 1.9511718,-1.1855471 z m 3.8066407,1.9960941 v 2.828125 C 6.6168494,14.611562 5.85934,13.94384 5.2578125,12.841797 5.246937,12.821887 5.2353634,12.801371 5.2246094,12.78125 5.9232107,12.285971 6.663708,11.998345 7.4199219,11.931641 Z m -2.7363281,1.283203 c 0.2657173,0.478643 0.5611482,0.886769 0.8808593,1.21875 -0.5053488,-0.169539 -0.9855986,-0.396286 -1.4316406,-0.671875 0.1791994,-0.198003 0.363916,-0.379894 0.5507813,-0.546875 z"
           transform="matrix(1.5640681,0,0,1.5640681,-0.08743054,-0.14772942)" />
      </g>
    </g>
    <g
       stroke="null"
       id="g2141"
       style="fill:#6e6e6e;fill-opacity:1" />
    <g
       stroke="null"
       id="g2143"
       style="fill:#6e6e6e;fill-opacity:1" />
    <g
       stroke="null"
       id="g2145"
       style="fill:#6e6e6e;fill-opacity:1" />
    <g
       stroke="null"
       id="g2147"
       style="fill:#6e6e6e;fill-opacity:1" />
    <g
       stroke="null"
       id="g2149"
       style="fill:#6e6e6e;fill-opacity:1" />
    <g
       stroke="null"
       id="g2151"
       style="fill:#6e6e6e;fill-opacity:1" />
    <g
       stroke="null"
       id="g2153"
       style="fill:#6e6e6e;fill-opacity:1" />
    <g
       stroke="null"
       id="g2155"
       style="fill:#6e6e6e;fill-opacity:1" />
    <g
       stroke="null"
       id="g2157"
       style="fill:#6e6e6e;fill-opacity:1" />
    <g
       stroke="null"
       id="g2159"
       style="fill:#6e6e6e;fill-opacity:1" />
    <g
       stroke="null"
       id="g2161"
       style="fill:#6e6e6e;fill-opacity:1" />
    <g
       stroke="null"
       id="g2163"
       style="fill:#6e6e6e;fill-opacity:1" />
    <g
       stroke="null"
       id="g2165"
       style="fill:#6e6e6e;fill-opacity:1" />
    <g
       stroke="null"
       id="g2167"
       style="fill:#6e6e6e;fill-opacity:1" />
    <g
       stroke="null"
       id="g2169"
       style="fill:#6e6e6e;fill-opacity:1" />
  </g>
  <metadata
     id="metadata2181">
    <rdf:RDF>
      <cc:Work
         rdf:about="">
        <dc:title>OpenAI icon</dc:title>
      </cc:Work>
    </rdf:RDF>
  </metadata>
</svg>
