<?xml version="1.0" encoding="UTF-8"?>
<svg xmlns="http://www.w3.org/2000/svg" xmlns:xlink="http://www.w3.org/1999/xlink" width="16" height="16" viewBox="0 0 16 16" version="1.1">
<g id="surface1">
<path style=" stroke:none;fill-rule:nonzero;fill:rgb(43.137255%,43.137255%,43.137255%);fill-opacity:1;" d="M 4 13 C 4 13.550781 3.550781 14 3 14 C 2.449219 14 2 13.550781 2 13 C 2 12.449219 2.449219 12 3 12 C 3.550781 12 4 12.449219 4 13 Z M 4 13 "/>
<path style=" stroke:none;fill-rule:nonzero;fill:rgb(43.137255%,43.137255%,43.137255%);fill-opacity:1;" d="M 8 13 C 8 13.550781 7.550781 14 7 14 C 6.449219 14 6 13.550781 6 13 C 6 12.449219 6.449219 12 7 12 C 7.550781 12 8 12.449219 8 13 Z M 8 13 "/>
<path style=" stroke:none;fill-rule:nonzero;fill:rgb(43.137255%,43.137255%,43.137255%);fill-opacity:1;" d="M 12 13 C 12 13.550781 11.550781 14 11 14 C 10.449219 14 10 13.550781 10 13 C 10 12.449219 10.449219 12 11 12 C 11.550781 12 12 12.449219 12 13 Z M 12 13 "/>
</g>
</svg>
