<?xml version="1.0" encoding="UTF-8"?>
<svg xmlns="http://www.w3.org/2000/svg" xmlns:xlink="http://www.w3.org/1999/xlink" width="64px" height="64px" viewBox="0 0 64 64" version="1.1">
<g id="surface1">
<path style=" stroke:none;fill-rule:nonzero;fill:rgb(43.137255%,43.137255%,43.137255%);fill-opacity:1;" d="M 15.113281 50.019531 C 15.113281 52.429688 13.160156 54.378906 10.753906 54.378906 C 8.34375 54.378906 6.390625 52.429688 6.390625 50.019531 C 6.390625 47.613281 8.34375 45.660156 10.753906 45.660156 C 13.160156 45.660156 15.113281 47.613281 15.113281 50.019531 Z M 15.113281 50.019531 "/>
<path style=" stroke:none;fill-rule:nonzero;fill:rgb(43.137255%,43.137255%,43.137255%);fill-opacity:1;" d="M 31.046875 49.9375 C 31.046875 52.34375 29.09375 54.296875 26.6875 54.296875 C 24.28125 54.296875 22.328125 52.34375 22.328125 49.9375 C 22.328125 47.53125 24.28125 45.578125 26.6875 45.578125 C 29.09375 45.578125 31.046875 47.53125 31.046875 49.9375 Z M 31.046875 49.9375 "/>
<path style=" stroke:none;fill-rule:nonzero;fill:rgb(43.137255%,43.137255%,43.137255%);fill-opacity:1;" d="M 56.609375 49.8125 C 56.609375 52.21875 54.65625 54.171875 52.25 54.171875 C 49.84375 54.171875 47.890625 52.21875 47.890625 49.8125 C 47.890625 47.40625 49.84375 45.453125 52.25 45.453125 C 54.65625 45.453125 56.609375 47.40625 56.609375 49.8125 Z M 56.609375 49.8125 "/>
<path style=" stroke:none;fill-rule:nonzero;fill:rgb(43.137255%,43.137255%,43.137255%);fill-opacity:1;" d="M 0.535156 40.988281 L 0.535156 48.488281 L 4.738281 48.488281 C 5.3125 45.566406 7.875 43.453125 10.855469 43.453125 C 13.839844 43.453125 16.402344 45.5625 16.976562 48.488281 L 20.464844 48.488281 C 21.03125 45.558594 23.597656 43.4375 26.585938 43.4375 C 29.574219 43.4375 32.140625 45.554688 32.710938 48.488281 L 41.046875 48.488281 L 41.046875 40.988281 Z M 0.535156 40.988281 "/>
<path style=" stroke:none;fill-rule:nonzero;fill:rgb(43.137255%,43.137255%,43.137255%);fill-opacity:1;" d="M 43.457031 20.003906 L 43.457031 48.523438 L 46.074219 48.515625 C 46.636719 45.578125 49.207031 43.457031 52.195312 43.453125 C 55.179688 43.453125 57.742188 45.566406 58.316406 48.492188 L 63.257812 48.484375 C 62.765625 44.230469 66.59375 34.402344 58.996094 20.113281 Z M 45.710938 21.902344 L 56.980469 21.941406 C 58.5 24.820312 59.671875 28.328125 59.90625 31.238281 L 45.710938 31.160156 Z M 45.710938 21.902344 "/>
<path style=" stroke:none;fill-rule:nonzero;fill:rgb(43.137255%,43.137255%,43.137255%);fill-opacity:1;" d="M 43.4375 10.320312 C 45.035156 10.355469 46.730469 10.378906 51.195312 12.546875 C 52.605469 13.121094 59.050781 16.898438 58.828125 17.632812 L 43.4375 17.476562 Z M 43.4375 10.320312 "/>
<path style=" stroke:none;fill-rule:nonzero;fill:rgb(43.137255%,43.137255%,43.137255%);fill-opacity:1;" d="M 0.46875 10.289062 L 0.46875 38.46875 L 41.011719 38.46875 L 41.011719 10.289062 Z M 2.363281 17.109375 L 38.992188 17.109375 L 38.992188 36.265625 L 2.363281 36.265625 Z M 2.363281 17.109375 "/>
<path style=" stroke:none;fill-rule:nonzero;fill:rgb(21.960784%,62.352941%,83.921569%);fill-opacity:1;" d="M 4.785156 19.238281 L 10.648438 19.238281 L 17.105469 26.527344 L 10.648438 33.773438 L 4.785156 33.773438 L 11.21875 26.527344 Z M 4.785156 19.238281 "/>
<path style=" stroke:none;fill-rule:nonzero;fill:rgb(21.960784%,62.352941%,83.921569%);fill-opacity:1;" d="M 20.207031 30.648438 L 34.390625 30.648438 C 35.273438 30.648438 35.992188 31.363281 35.992188 32.246094 L 35.992188 32.277344 C 35.992188 33.160156 35.273438 33.875 34.390625 33.875 L 20.207031 33.875 C 19.324219 33.875 18.609375 33.160156 18.609375 32.277344 L 18.609375 32.246094 C 18.609375 31.363281 19.324219 30.648438 20.207031 30.648438 Z M 20.207031 30.648438 "/>
</g>
</svg>
